# xmcd
#
# Track frame offsets:
#	182
#	13215
#	28797
#	46930
#	65387
#	79987
#	94080
#	109550
#	124782
#	138755
#
# Disc length: 2072 seconds
#
# Revision: 2
# Processed by: cddbd v1.5.1PL0 Copyright (c) Steve Scherf et al.
# Submitted via: audiograbber 1.83.01
#
DISCID=7d08160a
DTITLE=Little Texas - Super Hits Series  - Vol. 3
DYEAR=2000
DGENRE=Country
TTITLE0=Some Guys Have All The Love
TTITLE1=God Blessed Texas
TTITLE2=First Time For Everything
TTITLE3=My Love
TTITLE4=Bad For Us
TTITLE5=Cry On
TTITLE6=Only Thing I'm Sure Of
TTITLE7=Yesterday's Gone Forever
TTITLE8=I'd Hold On To Her
TTITLE9=Kick A Little
EXTD=
EXTT0=
EXTT1=
EXTT2=
EXTT3=
EXTT4=
EXTT5=
EXTT6=
EXTT7=
EXTT8=
EXTT9=
PLAYORDER=
